HIERARCHY
ROOT ui
{
	 OFFSET 0 0 0
	 CHANNELS 3 XPosition YPosition Z Position
	 EndSite
	 {
	 OFFSET 0 -1 0
	 }
}
ROOT li
{
	 OFFSET 0 0 0
	 CHANNELS 3 XPosition YPosition Z Position
	 EndSite
	 {
	 OFFSET 0 -1 0
	 }
}
ROOT ul
{
	 OFFSET 0 0 0
	 CHANNELS 3 XPosition YPosition Z Position
	 EndSite
	 {
	 OFFSET 0 -1 0
	 }
}
ROOT ll
{
	 OFFSET 0 0 0
	 CHANNELS 3 XPosition YPosition Z Position
	 EndSite
	 {
	 OFFSET 0 -1 0
	 }
}
ROOT tt
{
	 OFFSET 0 0 0
	 CHANNELS 3 XPosition YPosition Z Position
	 EndSite
	 {
	 OFFSET 0 -1 0
	 }
}
ROOT tb
{
	 OFFSET 0 0 0
	 CHANNELS 3 XPosition YPosition Z Position
	 EndSite
	 {
	 OFFSET 0 -1 0
	 }
}
ROOT td
{
	 OFFSET 0 0 0
	 CHANNELS 3 XPosition YPosition Z Position
	 EndSite
	 {
	 OFFSET 0 -1 0
	 }
}
ROOT v
{
	 OFFSET 0 0 0
	 CHANNELS 3 XPosition YPosition Z Position
	 EndSite
	 {
	 OFFSET 0 -1 0
	 }
}
ROOT bn
{
	 OFFSET 0 0 0
	 CHANNELS 3 XPosition YPosition Z Position
	 EndSite
	 {
	 OFFSET 0 -1 0
	 }
}
MOTION
Frames: 21
Frame Time: 0.002
-0.0013904980421066285	1.2497999705374241E-5	0		0.5491011352539062	-2.33194482421875	0		-1.074404541015625	0.009540416717529298	0		-0.619584228515625	-2.356593017578125	0		1.64886328125	-0.9957381591796876	0		3.17803271484375	-0.11282878875732422	0		4.537767578125	0.22622227478027343	0		5.62197705078125	-0.034565792083740235	0		-0.01798642158508301	5.92841455078125	0		
-0.005601438999176025	-0.0029399399757385255	0		0.54927294921875	-2.331896728515625	0		-1.074560546875	0.009361249923706055	0		-0.619408935546875	-2.35670849609375	0		1.687802978515625	-0.9982762451171875	0		3.18374072265625	-0.12052507781982422	0		4.53344873046875	0.21990606689453124	0		5.6218271484375	-0.03380741500854492	0		-0.01897113609313965	5.92838330078125	0		
-0.005757071018218994	-0.0029703769683837892	0		0.57131591796875	-2.3392607421875	0		-1.0787926025390624	0.005253395080566406	0		-0.6212638549804688	-2.3587890625	0		1.6488349609375	-0.995328857421875	0		3.144778564453125	-0.11036409759521484	0		4.53739208984375	0.22745085144042967	0		5.62167578125	-0.03302970123291016	0		-0.03418338012695313	5.91761669921875	0		
-0.005911593914031983	-0.0030011589527130125	0		0.5257310180664062	-2.32635009765625	0		-1.074874267578125	0.00899226188659668	0		-0.6441492309570312	-2.362477783203125	0		1.651879150390625	-0.992177490234375	0		3.18346435546875	-0.11966802978515625	0		4.54205419921875	0.2199835662841797	0		5.62567431640625	-0.024324617385864257	0		-0.15341476440429688	5.906791015625	0		
0.005122355937957764	0.006762975215911865	0		0.57984716796875	-2.330305908203125	0		-1.0709521484375	0.012735118865966797	0		-0.592027587890625	-2.366563232421875	0		1.656999267578125	-0.9850654296875	0		3.19564453125	-0.102469482421875	0		4.54598291015625	0.22652593994140624	0		5.6296572265625	-0.01662809181213379	0		-0.13724197387695314	5.9154228515625	0		
9.257770180702209E-4	0.003810678005218506	0		0.552033935546875	-2.329737060546875	0		-1.07516796875	0.008633786201477051	0		-0.618670166015625	-2.357176513671875	0		1.693896484375	-0.9905435791015625	0		3.17735498046875	-0.11072048187255859	0		4.54784716796875	0.22909188842773437	0		5.62539013671875	-0.022799829483032226	0		-0.14114747619628906	5.91843115234375	0		
-0.0022750248908996584	-1.583999991416931E-4	0		0.5761412963867187	-2.3341259765625	0		-1.0043817749023438	0.0031673200130462645	0		-0.6205181884765625	-2.359247314453125	0		1.6518719482421875	-0.9915729370117188	0		3.183094970703125	-0.11842787933349609	0		4.5366904296875	0.22987763977050782	0		5.62111962890625	-0.029996370315551756	0		-0.023868383407592772	5.9282275390625	0		
-0.0064388270378112795	-0.0031079890727996828	0		0.5244317016601563	-2.328130615234375	0		-1.0794798583984375	0.004377161979675293	0		-0.6125067749023437	-2.369493408203125	0		1.6877930908203125	-0.99703515625	0		3.183	-0.11803968811035156	0		4.5372783203125	0.2154247589111328	0		5.621013671875	-0.029293684005737303	0		-0.03894054412841797	5.91745849609375	0		
-0.0065260081291198735	-0.0031291399002075196	0		0.5505740966796875	-2.331554443359375	0		-1.0754964599609376	0.008150362968444824	0		-0.6703095703125	-2.36954345703125	0		1.65499658203125	-0.9872528686523437	0		3.177072265625	-0.10955902862548828	0		4.54128955078125	0.22289292907714844	0		5.6209296875	-0.02861805725097656	0		-0.024582895278930664	5.9271611328125	0		
0.0045925059318542485	0.006653215885162354	0		0.55487939453125	-2.326580078125	0		-1.071485595703125	0.01193272876739502	0		-0.608009033203125	-2.36575244140625	0		1.6960654296875	-0.9868101196289063	0		3.186988525390625	-0.11138050079345703	0		4.5412041015625	0.22341156005859375	0		5.62501611328125	-0.020044748306274413	0		-0.011147965431213379	5.93788720703125	0		
0.07135989379882812	-0.005553163051605224	0		0.5530611572265625	-2.32949755859375	0		-1.0755828857421874	0.007868939876556397	0		-0.634907958984375	-2.373354248046875	0		1.657192138671875	-0.983942138671875	0		3.1869755859375	-0.11103977966308594	0		4.54115380859375	0.2239037628173828	0		5.62085107421875	-0.02735882568359375	0		-0.1442261505126953	5.9172236328125	0		
-0.002547528028488159	-2.4971799552440645E-4	0		0.5512793579101563	-2.331417236328125	0		-1.0046560668945312	0.0024872500896453856	0		-0.6194046020507813	-2.359701416015625	0		1.69114013671875	-0.9933822631835938	0		3.1911025390625	-0.10479120635986328	0		4.5362822265625	0.23245298767089845	0		5.62086376953125	-0.026783866882324217	0		-0.02664174461364746	5.92710498046875	0		
-0.006560535907745362	-0.003189136028289795	0		0.5515437622070313	-2.3313740234375	0		-1.07960546875	0.003700350046157837	0		-0.6561317749023438	-2.3591201171875	0		1.65231640625	-0.990542724609375	0		3.182941650390625	-0.11635031127929688	0		4.53703466796875	0.21786587524414064	0		5.6209052734375	-0.02625093650817871	0		-0.16055940246582032	5.9064375	0		
-0.006500803947448731	-0.0031957120895385743	0		0.534705810546875	-2.33703271484375	0		-1.0754769287109376	0.007528707027435303	0		-0.5961192016601562	-2.374232421875	0		1.6575848388671874	-0.9834920043945312	0		3.183011474609375	-0.11607630920410156	0		4.5340576171875	0.21731169128417968	0		5.60197021484375	-0.025429689407348632	0		-0.012464254379272462	5.93681982421875	0		
0.004742616176605224	0.006609967231750488	0		0.558183837890625	-2.32439404296875	0		-1.071337890625	0.011373007774353027	0		-0.6626942749023438	-2.364113037109375	0		1.6607847900390624	-0.9804144897460938	0		3.195385498046875	-0.09903748321533203	0		4.545353515625	0.23147500610351562	0		5.6292998046875	-0.01046124267578125	0		-0.14329574584960938	5.9130888671875	0		
7.636640071868897E-4	0.003686708927154541	0		0.5543323364257813	-2.329278564453125	0		-1.0003632202148438	0.005072727203369141	0		-0.6064826049804688	-2.366125	0		1.6578743896484376	-0.9832399291992188	0		3.187275634765625	-0.10966811370849609	0		4.541306640625	0.22586805725097656	0		5.6211142578125	-0.02492195701599121	0		-0.1465641632080078	5.91713720703125	0		
8.304589986801148E-4	0.0037010641098022463	0		0.552505615234375	-2.33119580078125	0		-1.0752679443359374	0.007324450016021729	0		-0.60830712890625	-2.368112548828125	0		1.69490869140625	-0.9887650756835937	0		3.18324609375	-0.11539131164550781	0		4.54823828125	0.219036376953125	0		5.62118310546875	-0.02456837844848633	0		-0.14685427856445313	5.917142578125	0		
-0.006237164974212646	-0.0031550209522247315	0		0.5765889282226563	-2.33655859375	0		-1.0083640747070313	-0.0018640660047531128	0		-0.610166259765625	-2.370087158203125	0		1.65298388671875	-0.9899302368164062	0		3.183304443359375	-0.11520425415039062	0		4.54140087890625	0.22641390991210938	0		5.621236328125	-0.024254959106445314	0		-0.028919204711914063	5.927119140625	0		
-0.006207874774932861	-0.0031260130405426027	0		0.5289010009765625	-2.325678955078125	0		-1.075187255859375	0.007272316932678223	0		-0.6310460205078126	-2.370723388671875	0		1.65612548828125	-0.9858797607421875	0		3.17747705078125	-0.10693157958984376	0		4.54628125	0.2185599365234375	0		5.61126806640625	-0.02380402946472168	0		-0.14635958862304688	5.91616259765625	0		
9.098659753799438E-4	0.003788671016693115	0		0.5829287109375	-2.329549560546875	0		-1.0751890869140626	0.007267436981201172	0		-0.5929798583984375	-2.37236376953125	0		1.6582127685546875	-0.982815185546875	0		3.183341552734375	-0.11487600708007813	0		4.54140966796875	0.22685427856445312	0		5.62126611328125	-0.023725435256958007	0		-0.014211437225341798	5.93692333984375	0		
8.708450198173523E-4	0.0038314950466156006	0		0.554970947265625	-2.329007568359375	0		-1.0752281494140625	0.007274681091308593	0		-0.6058355712890625	-2.36611865234375	0		1.6971663818359375	-0.9853856811523437	0		3.199303955078125	-0.11500217437744141	0		4.54136328125	0.22704722595214843	0		5.6112294921875	-0.02332539749145508	0		-0.014446628570556641	5.93696533203125	0		
